<?xml version="1.0" encoding="UTF-8" standalone="no"?>
<!-- Created with Inkscape (http://www.inkscape.org/) -->

<svg
   width="18cm"
   height="18cm"
   id="svg2"
   version="1.1"
   inkscape:version="1.4.2 (ebf0e94, 2025-05-08)"
   sodipodi:docname="Azure Logo.svg"
   inkscape:export-filename="NCalc101Logo.png"
   inkscape:export-xdpi="7.9038014"
   inkscape:export-ydpi="7.9038014"
   xml:space="preserve"
   xmlns:inkscape="http://www.inkscape.org/namespaces/inkscape"
   xmlns:sodipodi="http://sodipodi.sourceforge.net/DTD/sodipodi-0.dtd"
   xmlns="http://www.w3.org/2000/svg"
   xmlns:svg="http://www.w3.org/2000/svg"
   xmlns:rdf="http://www.w3.org/1999/02/22-rdf-syntax-ns#"
   xmlns:cc="http://creativecommons.org/ns#"
   xmlns:dc="http://purl.org/dc/elements/1.1/"><title
     id="title3800">ReportMagic Logo</title><defs
     id="defs4"><linearGradient
       id="e399c19f-b68f-429d-b176-18c2117ff73c"
       x1="-1032.172"
       x2="-1059.213"
       y1="145.312"
       y2="65.426"
       gradientTransform="matrix(1,0,0,-1,1075,158)"
       gradientUnits="userSpaceOnUse"><stop
         offset="0"
         stop-color="#114a8b"
         id="stop1" /><stop
         offset="1"
         stop-color="#0669bc"
         id="stop2" /></linearGradient><linearGradient
       id="ac2a6fc2-ca48-4327-9a3c-d4dcc3256e15"
       x1="-1023.725"
       x2="-1029.98"
       y1="108.083"
       y2="105.968"
       gradientTransform="matrix(1,0,0,-1,1075,158)"
       gradientUnits="userSpaceOnUse"><stop
         offset="0"
         stop-opacity=".3"
         id="stop3" /><stop
         offset=".071"
         stop-opacity=".2"
         id="stop4" /><stop
         offset=".321"
         stop-opacity=".1"
         id="stop5" /><stop
         offset=".623"
         stop-opacity=".05"
         id="stop6" /><stop
         offset="1"
         stop-opacity="0"
         id="stop7" /></linearGradient><linearGradient
       id="a7fee970-a784-4bb1-af8d-63d18e5f7db9"
       x1="-1027.165"
       x2="-997.482"
       y1="147.642"
       y2="68.561"
       gradientTransform="matrix(1,0,0,-1,1075,158)"
       gradientUnits="userSpaceOnUse"><stop
         offset="0"
         stop-color="#3ccbf4"
         id="stop8" /><stop
         offset="1"
         stop-color="#2892df"
         id="stop9" /></linearGradient></defs><sodipodi:namedview
     id="base"
     pagecolor="#ffffff"
     bordercolor="#666666"
     borderopacity="1.0"
     inkscape:pageopacity="0.0"
     inkscape:pageshadow="2"
     inkscape:zoom="0.7"
     inkscape:cx="314.28571"
     inkscape:cy="259.28571"
     inkscape:document-units="px"
     inkscape:current-layer="layer1"
     showgrid="true"
     units="cm"
     inkscape:window-width="3440"
     inkscape:window-height="1369"
     inkscape:window-x="2552"
     inkscape:window-y="-8"
     inkscape:window-maximized="1"
     showguides="true"
     inkscape:guide-bbox="true"
     inkscape:snap-to-guides="false"
     inkscape:snap-grids="false"
     inkscape:showpageshadow="2"
     inkscape:pagecheckerboard="0"
     inkscape:deskcolor="#d1d1d1"><inkscape:grid
       type="xygrid"
       id="grid2985"
       empspacing="5"
       visible="true"
       enabled="true"
       snapvisiblegridlinesonly="true"
       units="cm"
       spacingx="17.716535"
       spacingy="17.716535"
       dotted="false"
       originx="-14.173229"
       originy="-14.173195" /><sodipodi:guide
       position="340.11248,842.86844"
       orientation="1,0"
       id="guide4606"
       inkscape:locked="false" /><sodipodi:guide
       position="157.25534,338.58272"
       orientation="0,1"
       id="guide4608"
       inkscape:locked="false" /></sodipodi:namedview><metadata
     id="metadata7"><rdf:RDF><cc:Work
         rdf:about=""><dc:format>image/svg+xml</dc:format><dc:type
           rdf:resource="http://purl.org/dc/dcmitype/StillImage" /><dc:title>ReportMagic Logo</dc:title></cc:Work></rdf:RDF></metadata><g
     inkscape:groupmode="layer"
     id="layer2"
     inkscape:label="Text"
     transform="translate(-14.173229,-14.173195)" /><g
     inkscape:label="Layer 1"
     inkscape:groupmode="layer"
     id="layer1"
     transform="translate(-14.173229,-357.87379)"><rect
       style="fill:#ffffff;fill-opacity:1;stroke:#000700;stroke-width:42.5197;stroke-miterlimit:4;stroke-dasharray:none;stroke-opacity:1"
       id="rect4184"
       width="637.79529"
       height="637.79529"
       x="35.433071"
       y="379.13364"
       ry="70.866135" /><g
       id="g1"
       transform="matrix(5.2844481,0,0,5.2844481,101.94094,432.91636)"><path
         fill="url(#e399c19f-b68f-429d-b176-18c2117ff73c)"
         d="m 33.338,6.544 h 26.038 l -27.03,80.087 a 4.152,4.152 0 0 1 -3.933,2.824 H 8.149 A 4.145,4.145 0 0 1 4.221,83.985 L 29.404,9.368 a 4.152,4.152 0 0 1 3.934,-2.825 z"
         id="path9"
         style="fill:url(#e399c19f-b68f-429d-b176-18c2117ff73c)" /><path
         fill="#0078d4"
         d="M 71.175,60.261 H 29.885 A 1.911,1.911 0 0 0 28.58,63.57 l 26.532,24.764 a 4.171,4.171 0 0 0 2.846,1.121 h 23.38 z"
         id="path10" /><path
         fill="url(#ac2a6fc2-ca48-4327-9a3c-d4dcc3256e15)"
         d="M 33.338,6.544 A 4.118,4.118 0 0 0 29.395,9.423 L 4.252,83.917 a 4.14,4.14 0 0 0 3.908,5.538 h 20.787 a 4.443,4.443 0 0 0 3.41,-2.9 l 5.014,-14.777 17.91,16.705 a 4.237,4.237 0 0 0 2.666,0.972 H 81.24 L 71.024,60.261 41.243,60.268 59.47,6.544 Z"
         id="path11"
         style="fill:url(#ac2a6fc2-ca48-4327-9a3c-d4dcc3256e15)" /><path
         fill="url(#a7fee970-a784-4bb1-af8d-63d18e5f7db9)"
         d="M 66.595,9.364 A 4.145,4.145 0 0 0 62.667,6.544 H 33.648 a 4.146,4.146 0 0 1 3.928,2.82 l 25.184,74.62 a 4.146,4.146 0 0 1 -3.928,5.472 h 29.02 a 4.146,4.146 0 0 0 3.927,-5.472 z"
         id="path12"
         style="fill:url(#a7fee970-a784-4bb1-af8d-63d18e5f7db9)" /></g></g><g
     inkscape:groupmode="layer"
     id="layer3"
     inkscape:label="Guide"
     style="display:none"
     transform="translate(-14.173229,-14.173195)"><path
       sodipodi:type="star"
       style="fill:#fffffe;fill-opacity:1;stroke:#f97700;stroke-width:2.64567;stroke-linecap:round;stroke-linejoin:round;stroke-miterlimit:4;stroke-dasharray:none;stroke-opacity:1"
       id="path4604"
       sodipodi:sides="5"
       sodipodi:cx="347.14285"
       sodipodi:cy="698.17749"
       sodipodi:r1="160.96651"
       sodipodi:r2="5.1074705"
       sodipodi:arg1="-0.26750628"
       sodipodi:arg2="0.39760248"
       inkscape:flatsided="false"
       inkscape:rounded="0"
       inkscape:randomized="0"
       d="m 502.38427,655.62966 -150.53237,44.52549 83.72858,132.5177 -88.86332,-129.40566 -100.15827,120.58084 95.61183,-124.50259 -145.6298,-57.99465 147.95467,52.45883 10.15411,-156.4235 -4.17081,156.92393 z"
       inkscape:transform-center-x="-0.59833842"
       inkscape:transform-center-y="-24.965463"
       transform="matrix(1.7076311,-0.07709853,0.07709853,1.7076311,-292.2642,-808.46153)" /></g></svg>
