<?xml version="1.0" encoding="iso-8859-1"?>
<!-- Generator: Adobe Illustrator 18.1.1, SVG Export Plug-In . SVG Version: 6.00 Build 0)  -->
<svg xmlns="http://www.w3.org/2000/svg" xmlns:xlink="http://www.w3.org/1999/xlink" version="1.1" id="Capa_1" x="0px" y="0px" viewBox="0 0 17.369 17.369" style="enable-background:new 0 0 17.369 17.369;" xml:space="preserve" width="512px" height="512px">
<g>
	<g>
		<path d="M0,14.249l9.923,2.567V0.554L0,3.122V14.249z M5.062,9.433C3.961,8.898,3.243,8.049,3.243,6.706    c0-1.575,0.944-2.781,2.508-2.781c0.748,0,1.298,0.22,1.692,0.466L7.108,6.076C6.842,5.898,6.371,5.638,5.721,5.638    c-0.649,0-0.964,0.411-0.964,0.891c0,0.589,0.374,0.849,1.229,1.301c1.171,0.603,1.721,1.453,1.721,2.754    c0,1.548-0.854,2.862-2.674,2.862c-0.758,0-1.505-0.273-1.879-0.561l0.305-1.726c0.403,0.287,1.023,0.574,1.663,0.574    c0.688,0,1.052-0.396,1.052-1C6.173,10.159,5.858,9.829,5.062,9.433z" fill="#326fb3"/>
		<path d="M15.204,6.208c-0.358,0-0.69,0.095-0.988,0.249L12.9,5.139c0.086-0.233,0.139-0.481,0.139-0.744    c0-1.165-0.921-2.107-2.074-2.155v4.312c0.229-0.011,0.449-0.056,0.654-0.131l1.478,1.477c-0.035,0.153-0.058,0.311-0.058,0.475    c0,0.536,0.202,1.02,0.525,1.397l-1.282,1.282c-0.3-0.154-0.634-0.251-0.993-0.251c-0.11,0-0.217,0.016-0.324,0.032v4.264    c0.107,0.017,0.214,0.032,0.324,0.032c1.194,0,2.163-0.968,2.163-2.163c0-0.162-0.019-0.317-0.053-0.468l1.978-1.978    c1.114-0.09,1.992-1.012,1.992-2.148C17.368,7.177,16.398,6.208,15.204,6.208z" fill="#326fb3"/>
	</g>
</g>
</svg>
